HIERARCHY
ROOT Hips
{
	OFFSET 0.000000 0.000000 0.000000
	CHANNELS 6 Xposition Yposition Zposition Xrotation Yrotation Zrotation
	JOINT LeftUpLeg_virtual
	{
		OFFSET 0.000000 0.000000 0.000000
		CHANNELS 3 Xrotation Yrotation Zrotation
		JOINT LeftUpLeg
		{
			OFFSET 11.394100 -6.187798 -0.413800
			CHANNELS 3 Xrotation Yrotation Zrotation
			JOINT LeftLeg
			{
				OFFSET 0.430247 -32.302673 3.732800
				CHANNELS 3 Xrotation Yrotation Zrotation
				JOINT LeftFoot
				{
					OFFSET -0.430247 -48.264931 -6.423300
					CHANNELS 3 Xrotation Yrotation Zrotation
					JOINT LeftToeBase
					{
						OFFSET 4.230900 -16.068199 23.438400
						CHANNELS 3 Xrotation Yrotation Zrotation
						JOINT LeftToe_End
						{
							OFFSET 4.510700 0.695400 19.974600
							CHANNELS 3 Xrotation Yrotation Zrotation
							End Site
							{
								OFFSET 0 0 0
							}
						}
					}
				}
			}
		}
	}
	JOINT RightUpLeg_virtual
	{
		OFFSET 0.000000 0.000000 0.000000
		CHANNELS 3 Xrotation Yrotation Zrotation
		JOINT RightUpLeg
		{
			OFFSET -11.333700 -6.187798 -0.413800
			CHANNELS 3 Xrotation Yrotation Zrotation
			JOINT RightLeg
			{
				OFFSET -0.430392 -32.302628 3.733000
				CHANNELS 3 Xrotation Yrotation Zrotation
				JOINT RightFoot
				{
					OFFSET 0.430392 -48.264973 -6.423500
					CHANNELS 3 Xrotation Yrotation Zrotation
					JOINT RightToeBase
					{
						OFFSET -4.230900 -16.068199 23.438400
						CHANNELS 3 Xrotation Yrotation Zrotation
						JOINT RightToe_End
						{
							OFFSET -4.510700 0.695400 19.974600
							CHANNELS 3 Xrotation Yrotation Zrotation
							End Site
							{
								OFFSET 0 0 0
							}
						}
					}
				}
			}
		}
	}
	JOINT Spine_virtual
	{
		OFFSET 0.000000 0.000000 0.000000
		CHANNELS 3 Xrotation Yrotation Zrotation
		JOINT Spine
		{
			OFFSET -0.002400 12.777504 0.315300
			CHANNELS 3 Xrotation Yrotation Zrotation
			JOINT Spine1
			{
				OFFSET -0.002067 5.816869 0.032633
				CHANNELS 3 Xrotation Yrotation Zrotation
				JOINT Spine1_split
				{
					OFFSET -0.002067 5.816869 0.032633
					CHANNELS 3 Xrotation Yrotation Zrotation
					JOINT Spine2
					{
						OFFSET -0.002067 5.816869 0.032633
						CHANNELS 3 Xrotation Yrotation Zrotation
						JOINT Neck_virtual
						{
							OFFSET 0.000000 0.000000 0.000000
							CHANNELS 3 Xrotation Yrotation Zrotation
							JOINT Neck
							{
								OFFSET -0.003700 21.199493 -0.826900
								CHANNELS 3 Xrotation Yrotation Zrotation
								JOINT Head
								{
									OFFSET 0.000000 20.442200 4.834800
									CHANNELS 3 Xrotation Yrotation Zrotation
									JOINT HeadTop_End
									{
										OFFSET 0.000000 34.668396 4.968400
										CHANNELS 3 Xrotation Yrotation Zrotation
										End Site
										{
											OFFSET 0 0 0
										}
									}
								}
							}
						}
						JOINT LeftShoulder_virtual
						{
							OFFSET 0.000000 0.000000 0.000000
							CHANNELS 3 Xrotation Yrotation Zrotation
							JOINT LeftShoulder
							{
								OFFSET 3.288150 8.794197 -1.372250
								CHANNELS 3 Xrotation Yrotation Zrotation
								JOINT LeftShoulder_split
								{
									OFFSET 3.288150 8.794197 -1.372250
									CHANNELS 3 Xrotation Yrotation Zrotation
									JOINT LeftArm
									{
										OFFSET 11.953299 -2.279007 -0.146200
										CHANNELS 3 Xrotation Yrotation Zrotation
										JOINT LeftForeArm
										{
											OFFSET 18.448900 0.000000 0.000000
											CHANNELS 3 Xrotation Yrotation Zrotation
											JOINT LeftHand
											{
												OFFSET 29.527798 0.000000 0.000000
												CHANNELS 3 Xrotation Yrotation Zrotation
												End Site
												{
													OFFSET 0 0 0
												}
											}
										}
									}
								}
							}
						}
						JOINT RightShoulder_virtual
						{
							OFFSET 0.000000 0.000000 0.000000
							CHANNELS 3 Xrotation Yrotation Zrotation
							JOINT RightShoulder
							{
								OFFSET -3.249400 8.794197 -1.372250
								CHANNELS 3 Xrotation Yrotation Zrotation
								JOINT RightShoulder_split
								{
									OFFSET -3.249400 8.794197 -1.372250
									CHANNELS 3 Xrotation Yrotation Zrotation
									JOINT RightArm
									{
										OFFSET -11.953299 -2.279007 -0.146200
										CHANNELS 3 Xrotation Yrotation Zrotation
										JOINT RightForeArm
										{
											OFFSET -18.448900 0.000000 0.000000
											CHANNELS 3 Xrotation Yrotation Zrotation
											JOINT RightHand
											{
												OFFSET -29.527802 0.000000 0.000000
												CHANNELS 3 Xrotation Yrotation Zrotation
												End Site
												{
													OFFSET 0 0 0
												}
											}
										}
									}
								}
							}
						}
					}
				}
			}
		}
	}
}
MOTION
Frames: 8
Frame Time: 0.03333333
17.108681 99.817413 8.396099 0.000000 0.000000 0.000000 0.113143 4.289170 -3.917219 -1.398306 11.538740 4.665809 19.745546 -5.947450 4.435276 -18.991068 2.064406 -0.856509 1.842426 -2.818599 -2.431234 0.000000 0.000000 0.000000 -0.048271 4.552989 -3.836908 -39.625804 -0.466570 -1.165333 25.480777 -3.727221 -1.952262 8.889221 -0.207913 8.423035 1.623888 2.266797 -24.625093 0.000000 0.000000 0.000000 -0.344910 11.501745 -4.428042 6.358249 -4.690601 2.391544 1.560760 -2.067146 1.825086 0.170348 -0.598399 0.099097 0.000000 0.000000 0.000000 0.765675 -0.557427 2.206564 -8.847314 5.326581 10.552752 1.283030 -7.587316 -1.678547 0.000000 0.000000 0.000000 -0.366504 -1.716955 1.908085 1.789528 0.727517 1.126976 2.628156 -3.529399 -1.948701 -3.152615 -0.140507 -81.733008 14.694322 -31.653207 1.849099 0.000000 0.000000 0.000000 0.369620 -1.879535 1.975334 2.533346 -7.100765 5.010349 -9.438721 0.506580 0.182214 2.477516 11.719539 74.026000 -2.171759 17.119249 6.185875 0.000000 0.000000 0.000000 
17.530323 100.138741 10.534364 0.000000 0.000000 0.000000 0.892290 4.336913 -4.460363 -0.203621 12.178480 5.006077 18.411147 -6.029078 4.485115 -19.049927 3.267769 -1.898351 1.536053 -3.112770 -3.097319 0.000000 0.000000 0.000000 1.137081 4.351210 -4.571454 -40.652371 -0.302049 -0.112509 19.938248 -2.953351 -2.969326 7.839846 2.167232 8.838585 4.116291 1.956566 -27.263675 0.000000 0.000000 0.000000 0.271858 11.811672 -5.036656 6.055165 -4.922131 2.080335 1.624515 -2.126484 1.894420 0.207402 -0.627632 0.072739 0.000000 0.000000 0.000000 0.533623 -0.585639 2.278590 -8.872248 5.098930 11.041045 2.439797 -7.605077 -1.245069 0.000000 0.000000 0.000000 -0.475267 -1.759710 1.972811 1.913218 0.498484 1.029541 2.475460 -3.413606 -2.117792 -3.202209 -1.392631 -80.676712 14.253195 -32.787107 0.835608 0.000000 0.000000 0.000000 0.281019 -1.880105 2.026451 2.586118 -6.841269 5.886615 -9.879110 0.542049 0.296725 4.211717 11.006326 73.469538 -2.682593 17.645691 7.162311 0.000000 0.000000 0.000000 
17.796352 100.246422 12.781002 0.000000 0.000000 0.000000 1.575907 4.572782 -4.930508 0.923074 13.080191 5.673436 17.347678 -5.764532 4.269346 -19.056344 4.664950 -2.462176 0.957563 -3.500028 -3.643177 0.000000 0.000000 0.000000 2.133391 4.653127 -5.320861 -41.979159 -0.122573 0.570986 15.598130 -2.707213 -3.601559 7.638043 3.549421 8.753014 4.938768 1.811170 -28.869973 0.000000 0.000000 0.000000 0.723579 12.220393 -5.454660 5.979949 -5.408861 1.610629 1.677808 -2.242048 2.035221 0.210629 -0.611764 0.057530 0.000000 0.000000 0.000000 0.359188 -0.650421 2.425505 -8.812956 5.008400 11.573699 3.696795 -7.401955 -1.043527 0.000000 0.000000 0.000000 -0.583244 -1.845215 2.099268 1.974356 0.259334 0.830873 2.370214 -3.307901 -2.152303 -3.359376 -2.628732 -79.816969 14.260426 -33.552915 0.235064 0.000000 0.000000 0.000000 0.166232 -1.927672 2.161453 2.683278 -6.511883 6.748543 -10.261659 0.681677 0.157282 5.826720 10.302691 72.944146 -3.368566 18.608707 8.261608 0.000000 0.000000 0.000000 
17.890688 100.128021 15.151675 0.000000 0.000000 0.000000 2.201424 5.060648 -5.268144 2.174519 14.185881 6.651553 16.428164 -5.525619 3.898916 -19.011669 5.910365 -2.848240 -0.470844 -3.919231 -3.814209 0.000000 0.000000 0.000000 2.905337 5.446004 -5.869807 -43.828480 -0.050278 0.640976 12.985628 -2.933452 -3.871521 8.475192 4.056327 8.629962 4.641861 1.826593 -29.243421 0.000000 0.000000 0.000000 1.163980 12.710177 -5.592483 6.081933 -6.086287 1.031789 1.654422 -2.395318 2.192185 0.187423 -0.604830 0.045020 0.000000 0.000000 0.000000 0.233387 -0.741978 2.591168 -8.651832 5.070840 12.094116 4.919150 -6.920522 -1.180806 0.000000 0.000000 0.000000 -0.745543 -1.956614 2.231257 1.969077 0.067210 0.557419 2.244772 -3.184820 -2.070329 -3.697077 -3.778334 -79.196433 14.794944 -33.804905 0.132854 0.000000 0.000000 0.000000 -0.021851 -2.026551 2.328673 2.811224 -6.166514 7.555009 -10.570508 0.802524 -0.069822 7.188758 9.781628 72.420147 -4.178446 19.951908 9.494006 0.000000 0.000000 0.000000 
17.717264 99.736465 17.664787 0.000000 0.000000 0.000000 2.794846 5.767351 -5.367591 3.508523 15.388329 7.865493 15.691438 -5.932181 3.455255 -18.639900 6.666574 -4.020400 -3.025658 -4.336361 -3.471605 0.000000 0.000000 0.000000 3.376670 6.320757 -6.012156 -45.968508 -0.144642 0.278565 11.939289 -3.513693 -3.851113 9.466007 3.875728 8.408613 3.796384 1.951706 -28.538776 0.000000 0.000000 0.000000 1.556740 13.250901 -5.362316 6.342598 -6.840521 0.441496 1.498628 -2.551965 2.307534 0.146325 -0.578517 0.038110 0.000000 0.000000 0.000000 0.133583 -0.847962 2.710462 -8.371485 5.281220 12.515360 6.174299 -6.230714 -1.643292 0.000000 0.000000 0.000000 -0.986494 -2.081308 2.296735 1.933554 -0.050984 0.231819 2.159670 -3.080287 -1.882084 -4.199679 -4.809622 -78.810110 15.812013 -33.555425 0.489813 0.000000 0.000000 0.000000 -0.285287 -2.152140 2.476045 2.961869 -5.858155 8.308942 -10.750583 0.835811 -0.275815 8.149302 9.599095 71.812001 -4.981333 21.351404 10.799039 0.000000 0.000000 0.000000 
17.317495 99.085739 20.387642 0.000000 0.000000 0.000000 3.327723 6.524005 -5.200547 5.211614 16.466603 8.888596 15.175953 -6.678906 2.867077 -18.524778 6.923547 -5.305492 -6.236986 -4.791172 -2.706521 0.000000 0.000000 0.000000 3.666621 7.247965 -5.728896 -47.775582 -0.144892 -0.263296 12.186476 -4.147329 -3.617553 9.962690 3.357587 7.952245 2.872691 2.146248 -27.026376 0.000000 0.000000 0.000000 1.881200 13.715547 -4.767543 6.671013 -7.535876 -0.067320 1.202081 -2.690246 2.328979 0.127592 -0.587077 0.051699 0.000000 0.000000 0.000000 -0.012410 -0.947917 2.733093 -8.012647 5.605954 12.775401 7.537021 -5.418311 -2.367281 0.000000 0.000000 0.000000 -1.309169 -2.195305 2.257168 1.895741 -0.059786 -0.156188 2.224153 -2.968161 -1.621958 -4.816836 -5.738549 -78.591305 17.129684 -32.938239 1.139639 0.000000 0.000000 0.000000 -0.623331 -2.277215 2.547545 3.129295 -5.623751 9.004368 -10.842657 0.716300 -0.433123 8.607596 9.834946 71.047314 -5.609067 22.326174 12.041151 0.000000 0.000000 0.000000 
16.707750 98.337547 23.271671 0.000000 0.000000 0.000000 3.475170 7.116718 -4.664872 6.924880 17.000740 9.671883 15.606912 -7.992380 2.358272 -18.309540 6.878684 -7.143840 -8.874845 -5.196527 -1.654392 0.000000 0.000000 0.000000 3.839110 8.075982 -5.061414 -48.838243 0.113223 -0.646060 13.427937 -4.782732 -3.245100 10.089595 2.654371 7.169152 2.819492 2.280667 -25.102764 0.000000 0.000000 0.000000 2.146393 14.008433 -3.974851 7.032165 -8.067293 -0.395053 0.772307 -2.792494 2.230094 0.138527 -0.646670 0.080328 0.000000 0.000000 0.000000 -0.273194 -1.029435 2.642978 -7.641307 5.999686 12.808475 9.093057 -4.704950 -3.200138 0.000000 0.000000 0.000000 -1.702089 -2.279537 2.115603 1.887270 0.043952 -0.614715 2.357968 -2.868720 -1.266475 -5.446116 -6.535062 -78.422729 18.471996 -32.185894 1.830859 0.000000 0.000000 0.000000 -1.003413 -2.385641 2.513641 3.324457 -5.464339 9.607329 -10.945582 0.448944 -0.484658 8.608625 10.466138 70.090110 -5.864231 22.537999 13.021513 0.000000 0.000000 0.000000 
15.876587 97.595482 26.342796 0.000000 0.000000 0.000000 3.304666 7.625250 -3.893987 8.761708 16.886442 9.907061 16.744591 -8.991474 1.944600 -18.907868 6.972088 -8.218630 -9.362898 -5.563641 -0.871541 0.000000 0.000000 0.000000 3.608974 8.620780 -4.268735 -49.385662 0.700084 -0.712566 15.541015 -5.287235 -2.713389 10.743040 1.924334 6.419972 3.467051 2.421066 -23.283878 0.000000 0.000000 0.000000 2.254339 14.080760 -3.220348 7.400078 -8.371382 -0.418243 0.245359 -2.854875 2.022334 0.167501 -0.708836 0.138977 0.000000 0.000000 0.000000 -0.683965 -1.089599 2.450342 -7.285070 6.429385 12.611780 10.944847 -4.186804 -4.006586 0.000000 0.000000 0.000000 -2.122787 -2.331445 1.896276 1.918787 0.257637 -1.106684 2.606820 -2.735583 -0.878679 -5.980556 -7.123887 -78.192723 19.533849 -31.591770 2.316870 0.000000 0.000000 0.000000 -1.382406 -2.459057 2.368916 3.549688 -5.427574 10.100434 -11.087379 0.152714 -0.567165 8.261667 11.428403 68.945999 -5.646130 21.906109 13.619821 0.000000 0.000000 0.000000 
